<svg width="80" height="80" viewBox="0 0 80 80" fill="none" xmlns="http://www.w3.org/2000/svg">
<circle cx="40" cy="40" r="40" fill="#FEE500"/>
<path d="M39.5625 21C50.9189 21 60.125 28.1753 60.125 37.029C60.125 45.8806 50.9189 53.056 39.5625 53.056C38.4317 53.0566 37.302 52.9846 36.1805 52.8405L27.5481 58.4864C26.567 59.0054 26.2204 58.9486 26.6238 57.6776L28.3706 50.4749C22.7306 47.6157 19 42.6611 19 37.029C19 28.1773 28.2061 21 39.5625 21ZM51.1304 36.7842L54.0091 33.9955C54.1752 33.823 54.2679 33.5927 54.2676 33.3533C54.2673 33.1138 54.1741 32.8837 54.0076 32.7116C53.8411 32.5395 53.6142 32.4388 53.3749 32.4306C53.1355 32.4224 52.9024 32.5074 52.7245 32.6678L48.9488 36.322V33.3022C48.9488 33.0571 48.8514 32.822 48.6781 32.6486C48.5047 32.4753 48.2696 32.3779 48.0245 32.3779C47.7793 32.3779 47.5442 32.4753 47.3709 32.6486C47.1975 32.822 47.1001 33.0571 47.1001 33.3022V38.3097C47.0655 38.4526 47.0655 38.6016 47.1001 38.7445V41.5625C47.1001 41.8077 47.1975 42.0428 47.3709 42.2161C47.5442 42.3895 47.7793 42.4868 48.0245 42.4868C48.2696 42.4868 48.5047 42.3895 48.6781 42.2161C48.8514 42.0428 48.9488 41.8077 48.9488 41.5625V38.8933L49.785 38.0845L52.5815 42.0658C52.6513 42.1652 52.74 42.2499 52.8426 42.315C52.9451 42.3801 53.0595 42.4244 53.1791 42.4453C53.2988 42.4662 53.4214 42.4633 53.54 42.4369C53.6585 42.4104 53.7707 42.3608 53.8701 42.291C53.9695 42.2212 54.0542 42.1325 54.1193 42.0299C54.1844 41.9274 54.2287 41.813 54.2496 41.6934C54.2705 41.5737 54.2676 41.4511 54.2411 41.3325C54.2147 41.214 54.1651 41.1018 54.0953 41.0024L51.1304 36.7822V36.7842ZM45.3376 40.552H42.4785V33.3316C42.4675 33.0941 42.3655 32.8699 42.1935 32.7057C42.0215 32.5415 41.7929 32.4498 41.5551 32.4498C41.3173 32.4498 41.0887 32.5415 40.9167 32.7057C40.7448 32.8699 40.6427 33.0941 40.6318 33.3316V41.4763C40.6318 41.9855 41.043 42.4007 41.5541 42.4007H45.3376C45.5828 42.4007 45.8179 42.3033 45.9912 42.1299C46.1646 41.9566 46.262 41.7215 46.262 41.4763C46.262 41.2312 46.1646 40.9961 45.9912 40.8227C45.8179 40.6494 45.5828 40.552 45.3376 40.552ZM33.8677 38.4135L35.2307 35.0706L36.4801 38.4135H33.8677ZM38.8085 39.3692L38.8125 39.3378C38.812 39.105 38.7231 38.881 38.5637 38.7112L36.5153 33.2278C36.4295 32.9665 36.2659 32.7377 36.0465 32.5718C35.8271 32.4059 35.5623 32.311 35.2875 32.2996C35.0106 32.2984 34.74 32.3815 34.5115 32.5378C34.2831 32.6942 34.1077 32.9164 34.0087 33.175L30.7559 41.1552C30.71 41.2676 30.6866 41.3879 30.6872 41.5093C30.6878 41.6307 30.7123 41.7508 30.7594 41.8627C30.8064 41.9746 30.875 42.0762 30.9612 42.1616C31.0475 42.247 31.1497 42.3146 31.2621 42.3605C31.3745 42.4064 31.4948 42.4297 31.6162 42.4291C31.7376 42.4286 31.8577 42.4041 31.9696 42.357C32.0816 42.31 32.1831 42.2414 32.2685 42.1552C32.354 42.0689 32.4216 41.9667 32.4675 41.8543L33.1137 40.2622H37.1675L37.753 41.8288C37.7928 41.9459 37.8557 42.0539 37.938 42.1462C38.0203 42.2386 38.1203 42.3135 38.232 42.3665C38.3438 42.4195 38.465 42.4495 38.5886 42.4548C38.7122 42.4601 38.8355 42.4406 38.9514 42.3973C39.0673 42.354 39.1733 42.288 39.2632 42.203C39.3531 42.118 39.425 42.0159 39.4746 41.9026C39.5243 41.7893 39.5508 41.6672 39.5524 41.5436C39.554 41.4199 39.5308 41.2971 39.4842 41.1826L38.8085 39.3692ZM32.303 33.3414C32.303 33.0966 32.2058 32.8618 32.0329 32.6885C31.86 32.5152 31.6254 32.4176 31.3806 32.4171H25.0258C24.7806 32.4171 24.5455 32.5145 24.3722 32.6878C24.1988 32.8612 24.1015 33.0963 24.1015 33.3414C24.1015 33.5866 24.1988 33.8217 24.3722 33.995C24.5455 34.1684 24.7806 34.2658 25.0258 34.2658H27.2975V41.5821C27.2975 41.8272 27.3948 42.0623 27.5682 42.2357C27.7415 42.409 27.9766 42.5064 28.2218 42.5064C28.4669 42.5064 28.702 42.409 28.8754 42.2357C29.0487 42.0623 29.1461 41.8272 29.1461 41.5821V34.2658H31.3786C31.6238 34.2658 31.8589 34.1684 32.0322 33.995C32.2056 33.8217 32.303 33.5866 32.303 33.3414Z" fill="#3F240F"/>
</svg>
