<svg width="20" height="18" viewBox="0 0 20 18" fill="none" xmlns="http://www.w3.org/2000/svg">
<path fill-rule="evenodd" clip-rule="evenodd" d="M0 2H5.4L7 0H13L14.6 2H20V18H0V16H18V4H13.6388L12.039 2H7.96L6.36125 4H2V14H0V2ZM10 5.00386C12.7604 5.00386 14.9981 7.24157 14.9981 10.0019C14.9981 12.7623 12.7604 15 10 15C7.23964 15 5.00193 12.7623 5.00193 10.0019C5.00193 7.24157 7.23964 5.00386 10 5.00386ZM7.00193 10.0019C7.00193 8.34614 8.34421 7.00386 10 7.00386C11.6558 7.00386 12.9981 8.34614 12.9981 10.0019C12.9981 11.6577 11.6558 13 10 13C8.34421 13 7.00193 11.6577 7.00193 10.0019Z" fill="white"/>
</svg>
