<svg width="20" height="20" viewBox="0 0 20 20" fill="none" xmlns="http://www.w3.org/2000/svg">
<path fill-rule="evenodd" clip-rule="evenodd" d="M10 0C15.5228 0 20 4.47715 20 10C20 15.5228 15.5228 20 10 20H0V18L1.99984 16.0008C0.932495 14.5801 0.234771 12.8658 0.0494531 11.0008L2.0619 11.001C2.22123 12.28 2.6846 13.4869 3.41073 14.5384L3.59886 14.7995L4.64177 16.1876L2.828 18H10C14.3349 18 17.8645 14.5522 17.9962 10.2492L18 10C18 5.58172 14.4183 2 10 2C5.92037 2 2.55396 5.05371 2.06189 9.00005L0.0493853 8.9999C0.551156 3.94662 4.81469 0 10 0ZM12 11V12.8H5V11H12ZM15 9V7.2H5V9H15Z" fill="#191919"/>
</svg>
