<svg width="20" height="20" viewBox="0 0 20 20" fill="none" xmlns="http://www.w3.org/2000/svg">
<path d="M4.5 15.5L12 12L15.5 4.5L8 8L4.5 15.5ZM10 11C9.71667 11 9.47933 10.904 9.288 10.712C9.096 10.5207 9 10.2833 9 10C9 9.71667 9.096 9.479 9.288 9.287C9.47933 9.09567 9.71667 9 10 9C10.2833 9 10.521 9.09567 10.713 9.287C10.9043 9.479 11 9.71667 11 10C11 10.2833 10.9043 10.5207 10.713 10.712C10.521 10.904 10.2833 11 10 11ZM10 20C8.61667 20 7.31667 19.7373 6.1 19.212C4.88333 18.6873 3.825 17.975 2.925 17.075C2.025 16.175 1.31267 15.1167 0.788 13.9C0.262667 12.6833 0 11.3833 0 10C0 8.61667 0.262667 7.31667 0.788 6.1C1.31267 4.88333 2.025 3.825 2.925 2.925C3.825 2.025 4.88333 1.31233 6.1 0.787C7.31667 0.262333 8.61667 0 10 0C11.3833 0 12.6833 0.262333 13.9 0.787C15.1167 1.31233 16.175 2.025 17.075 2.925C17.975 3.825 18.6873 4.88333 19.212 6.1C19.7373 7.31667 20 8.61667 20 10C20 11.3833 19.7373 12.6833 19.212 13.9C18.6873 15.1167 17.975 16.175 17.075 17.075C16.175 17.975 15.1167 18.6873 13.9 19.212C12.6833 19.7373 11.3833 20 10 20Z" fill="#878D91"/>
</svg>
