<svg width="26" height="26" viewBox="0 0 26 26" fill="none" xmlns="http://www.w3.org/2000/svg">
<path d="M1.95 4.46897C2.16327 4.0975 2.47104 3.78908 2.84207 3.57502C3.21309 3.36097 3.63416 3.24891 4.0625 3.25022L21.9375 3.25022C22.3658 3.24862 22.787 3.36039 23.1582 3.5742C23.5293 3.78801 23.8373 4.09624 24.0509 4.46758C24.2644 4.83893 24.3758 5.26016 24.3739 5.68851C24.372 6.11686 24.2567 6.53707 24.0398 6.90647L15.1125 22.344C14.8988 22.7153 14.591 23.0236 14.2201 23.2381C13.8492 23.4525 13.4284 23.5654 13 23.5654C12.5716 23.5654 12.1508 23.4525 11.7799 23.2381C11.409 23.0236 11.1012 22.7153 10.8875 22.344L1.96015 6.90647C1.74165 6.53786 1.62551 6.1176 1.62372 5.6891C1.62193 5.2606 1.73457 4.83939 1.95 4.46897Z" fill="#B7B7B7"/>
</svg>
