<svg width="auto" height="auto" viewBox="0 0 24 24" fill="none" xmlns="http://www.w3.org/2000/svg">
<path fill-rule="evenodd" clip-rule="evenodd" d="M22 12C22 6.47715 17.5228 2 12 2C6.47715 2 2 6.47715 2 12H4C4 11.3094 4.08751 10.6392 4.25203 10H7.15481C7.0517 10.6543 7 11.3211 7 12C7 12.6789 7.0517 13.3457 7.15481 14H5H4.25203H2.20004C3.12658 18.5645 7.16208 22 12 22C17.5228 22 22 17.5228 22 12ZM9.50405 4.39705C7.62109 5.01483 6.04636 6.31261 5.07026 8H7.64272C8.06076 6.74766 8.68196 5.5459 9.50405 4.39705ZM18.9297 8C17.9536 6.31261 16.3789 5.01483 14.4959 4.39705C15.318 5.5459 15.9392 6.74766 16.3573 8H18.9297ZM16.8452 10H19.748C19.9125 10.6392 20 11.3094 20 12C20 12.6906 19.9125 13.3608 19.748 14H16.8452C16.9483 13.3457 17 12.6789 17 12C17 11.3211 16.9483 10.6543 16.8452 10ZM16.3573 16H18.9297C17.9536 17.6874 16.3789 18.9852 14.4959 19.603C15.318 18.4541 15.9392 17.2523 16.3573 16ZM7.64272 16C8.06076 17.2523 8.68196 18.4541 9.50405 19.603C7.62109 18.9852 6.04636 17.6874 5.07026 16H7.64272ZM14.8154 14C14.9386 13.3475 15 12.681 15 12C15 11.319 14.9386 10.6525 14.8154 10H9.1846C9.06138 10.6525 9 11.319 9 12C9 12.681 9.06138 13.3475 9.1846 14H14.8154ZM9.77396 16C10.2726 17.2294 11.0134 18.4065 12 19.5348C12.9866 18.4065 13.7274 17.2294 14.226 16H9.77396ZM9.77396 8H14.226C13.7274 6.77057 12.9866 5.59354 12 4.4652C11.0134 5.59354 10.2726 6.77057 9.77396 8Z" fill="#191919"/>
</svg>
