<svg width="18" height="16" viewBox="0 0 18 16" fill="none" xmlns="http://www.w3.org/2000/svg">
<path d="M9.08366 13.4583L9.00033 13.5417L8.90866 13.4583C4.95033 9.86667 2.33366 7.49167 2.33366 5.08333C2.33366 3.41667 3.58366 2.16667 5.25033 2.16667C6.53366 2.16667 7.78366 3 8.22533 4.13333H9.77533C10.217 3 11.467 2.16667 12.7503 2.16667C14.417 2.16667 15.667 3.41667 15.667 5.08333C15.667 7.49167 13.0503 9.86667 9.08366 13.4583ZM12.7503 0.5C11.3003 0.5 9.90866 1.175 9.00033 2.23333C8.09199 1.175 6.70033 0.5 5.25033 0.5C2.68366 0.5 0.666992 2.50833 0.666992 5.08333C0.666992 8.225 3.50033 10.8 7.79199 14.6917L9.00033 15.7917L10.2087 14.6917C14.5003 10.8 17.3337 8.225 17.3337 5.08333C17.3337 2.50833 15.317 0.5 12.7503 0.5Z" fill="#181818"/>
</svg>
