<svg width="26" height="24" viewBox="0 0 26 24" fill="none" xmlns="http://www.w3.org/2000/svg">
<path d="M18.3333 6.66634H23.6667C24.0203 6.66634 24.3594 6.80682 24.6095 7.05687C24.8595 7.30691 25 7.64605 25 7.99967V22.6663L20.556 18.9743C20.3162 18.7753 20.0143 18.6663 19.7027 18.6663H9C8.64638 18.6663 8.30724 18.5259 8.05719 18.2758C7.80714 18.0258 7.66667 17.6866 7.66667 17.333V13.333M18.3333 6.66634V2.66634C18.3333 2.31272 18.1929 1.97358 17.9428 1.72353C17.6928 1.47348 17.3536 1.33301 17 1.33301H2.33333C1.97971 1.33301 1.64057 1.47348 1.39052 1.72353C1.14048 1.97358 1 2.31272 1 2.66634V17.333L5.444 13.6397C5.684 13.4423 5.98533 13.333 6.29733 13.333H7.66667M18.3333 6.66634V11.9997C18.3333 12.3533 18.1929 12.6924 17.9428 12.9425C17.6928 13.1925 17.3536 13.333 17 13.333H7.66667" stroke="black" stroke-width="2" stroke-linecap="round" stroke-linejoin="round"/>
</svg>
