<svg width="32" height="32" viewBox="0 0 32 32" fill="none" xmlns="http://www.w3.org/2000/svg">
<path d="M16 30C12.287 30 8.72601 28.525 6.1005 25.8995C3.475 23.274 2 19.713 2 16C2 12.287 3.475 8.72601 6.1005 6.1005C8.72601 3.475 12.287 2 16 2C19.713 2 23.274 3.475 25.8995 6.1005C28.525 8.72601 30 12.287 30 16C30 19.713 28.525 23.274 25.8995 25.8995C23.274 28.525 19.713 30 16 30ZM16 32C20.2435 32 24.3131 30.3143 27.3137 27.3137C30.3143 24.3131 32 20.2435 32 16C32 11.7565 30.3143 7.68687 27.3137 4.68629C24.3131 1.68571 20.2435 0 16 0C11.7565 0 7.68687 1.68571 4.68629 4.68629C1.68571 7.68687 0 11.7565 0 16C0 20.2435 1.68571 24.3131 4.68629 27.3137C7.68687 30.3143 11.7565 32 16 32Z" fill="black"/>
<path d="M8.57028 19.134C8.79996 19.0014 9.07291 18.9655 9.32908 19.0341C9.58526 19.1027 9.80367 19.2703 9.93628 19.5C10.5505 20.5647 11.4344 21.4487 12.4989 22.0632C13.5635 22.6776 14.7711 23.0007 16.0003 23C17.2294 23.0007 18.4371 22.6776 19.5016 22.0632C20.5662 21.4487 21.4501 20.5647 22.0643 19.5C22.1295 19.3854 22.2167 19.2847 22.3209 19.2039C22.4251 19.1231 22.5443 19.0637 22.6716 19.0292C22.7989 18.9946 22.9317 18.9856 23.0625 19.0026C23.1933 19.0196 23.3194 19.0623 23.4336 19.1282C23.5478 19.1942 23.6479 19.2821 23.728 19.3868C23.8081 19.4916 23.8667 19.6112 23.9004 19.7387C23.9341 19.8662 23.9423 19.9991 23.9244 20.1297C23.9065 20.2604 23.863 20.3862 23.7963 20.5C23.0065 21.8687 21.8702 23.0052 20.5016 23.7952C19.133 24.5852 17.5805 25.0007 16.0003 25C14.4201 25.0007 12.8676 24.5852 11.499 23.7952C10.1304 23.0052 8.99404 21.8687 8.20429 20.5C8.07168 20.2703 8.03575 19.9974 8.10439 19.7412C8.17302 19.485 8.34061 19.2666 8.57028 19.134ZM14.0003 13C14.0003 14.656 13.1043 16 12.0003 16C10.8963 16 10.0003 14.656 10.0003 13C10.0003 11.344 10.8963 10 12.0003 10C13.1043 10 14.0003 11.344 14.0003 13ZM22.0003 13C22.0003 14.656 21.1043 16 20.0003 16C18.8963 16 18.0003 14.656 18.0003 13C18.0003 11.344 18.8963 10 20.0003 10C21.1043 10 22.0003 11.344 22.0003 13Z" fill="black"/>
</svg>
