<svg width="20" height="20" viewBox="0 0 20 20" fill="none" xmlns="http://www.w3.org/2000/svg">
<path fill-rule="evenodd" clip-rule="evenodd" d="M10 19C14.9705 19 19 14.9705 19 10C19 5.0295 14.9705 1 10 1C5.0295 1 1 5.0295 1 10C1 14.9705 5.0295 19 10 19ZM10 20C15.523 20 20 15.523 20 10C20 4.477 15.523 0 10 0C4.477 0 0 4.477 0 10C0 15.523 4.477 20 10 20Z" fill="#878D91"/>
<path d="M4 15.8149C4 15.2984 4.386 14.8619 4.9 14.8049C8.7575 14.3779 11.26 14.4164 15.109 14.8144C15.3012 14.8346 15.4834 14.9103 15.6333 15.0323C15.7831 15.1543 15.8942 15.3173 15.953 15.5014C16.0117 15.6856 16.0156 15.8828 15.9641 16.0691C15.9126 16.2554 15.808 16.4226 15.663 16.5504C11.1205 20.5099 8.5245 20.4554 4.32 16.5544C4.115 16.3644 4 16.0939 4 15.8149Z" fill="#878D91"/>
<path fill-rule="evenodd" clip-rule="evenodd" d="M15.0575 15.3116C11.239 14.9166 8.7725 14.8796 4.9545 15.3021C4.82882 15.3168 4.71296 15.3773 4.6291 15.472C4.54524 15.5668 4.49928 15.6891 4.5 15.8156C4.5 15.9586 4.5595 16.0941 4.66 16.1881C6.744 18.1211 8.323 18.9946 9.8665 19.0001C11.4155 19.0056 13.0795 18.1391 15.3345 16.1741C15.4061 16.1104 15.4577 16.0272 15.483 15.9346C15.5082 15.8421 15.506 15.7443 15.4767 15.6529C15.4473 15.5616 15.3921 15.4808 15.3177 15.4203C15.2433 15.3598 15.1529 15.3217 15.0575 15.3116ZM4.845 14.3081C8.743 13.8766 11.282 13.9156 15.161 14.3171C15.4502 14.3473 15.7242 14.4611 15.9497 14.6447C16.1751 14.8282 16.3422 15.0736 16.4304 15.3506C16.5185 15.6276 16.524 15.9243 16.4462 16.2044C16.3683 16.4845 16.2105 16.7359 15.992 16.9276C13.7045 18.9216 11.7995 20.0076 9.8635 20.0001C7.922 19.9931 6.101 18.8886 3.9805 16.9211C3.82868 16.7797 3.70765 16.6085 3.62497 16.4182C3.5423 16.2279 3.49976 16.0226 3.5 15.8151C3.49927 15.4423 3.6361 15.0824 3.88429 14.8042C4.13247 14.5261 4.47455 14.3497 4.845 14.3081Z" fill="#878D91"/>
<path d="M14 8C14 9.06087 13.5786 10.0783 12.8284 10.8284C12.0783 11.5786 11.0609 12 10 12C8.93913 12 7.92172 11.5786 7.17157 10.8284C6.42143 10.0783 6 9.06087 6 8C6 6.93913 6.42143 5.92172 7.17157 5.17157C7.92172 4.42143 8.93913 4 10 4C11.0609 4 12.0783 4.42143 12.8284 5.17157C13.5786 5.92172 14 6.93913 14 8Z" fill="#878D91"/>
<path fill-rule="evenodd" clip-rule="evenodd" d="M10 11C10.7956 11 11.5587 10.6839 12.1213 10.1213C12.6839 9.55871 13 8.79565 13 8C13 7.20435 12.6839 6.44129 12.1213 5.87868C11.5587 5.31607 10.7956 5 10 5C9.20435 5 8.44129 5.31607 7.87868 5.87868C7.31607 6.44129 7 7.20435 7 8C7 8.79565 7.31607 9.55871 7.87868 10.1213C8.44129 10.6839 9.20435 11 10 11ZM10 12C11.0609 12 12.0783 11.5786 12.8284 10.8284C13.5786 10.0783 14 9.06087 14 8C14 6.93913 13.5786 5.92172 12.8284 5.17157C12.0783 4.42143 11.0609 4 10 4C8.93913 4 7.92172 4.42143 7.17157 5.17157C6.42143 5.92172 6 6.93913 6 8C6 9.06087 6.42143 10.0783 7.17157 10.8284C7.92172 11.5786 8.93913 12 10 12Z" fill="#878D91"/>
</svg>
